<svg xmlns="http://www.w3.org/2000/svg" viewBox="0 0 18.03 16"><defs><style>.cls-1{fill:#fff;}</style></defs><title>Asset 2</title><g id="Layer_2" data-name="Layer 2"><g id="Layer_1-2" data-name="Layer 1"><path class="cls-1" d="M2.43,3.88H15.59a.68.68,0,1,0,0-1.36H2.43a.68.68,0,0,0,0,1.36Z"/><path class="cls-1" d="M17.79,5.19a.91.91,0,0,0-.67-.3H.91a.91.91,0,0,0-.91,1l.86,9.29a.91.91,0,0,0,.91.83H16.25a.91.91,0,0,0,.91-.83L18,5.89A.91.91,0,0,0,17.79,5.19ZM6.12,8h5.81a.61.61,0,0,1,.62.48.6.6,0,0,1-.31.68.79.79,0,0,1-.33.08H6.12A.62.62,0,1,1,6.12,8ZM10.7,14.2H7.32a.62.62,0,1,1,0-1.23H10.7a.62.62,0,1,1,0,1.23Zm1.22-2.46H6.1a.62.62,0,0,1-.61-.42.57.57,0,0,1,.19-.66.8.8,0,0,1,.42-.15c1.21,0,4.61,0,5.83,0a.62.62,0,1,1,0,1.23Z"/><path class="cls-1" d="M4.23,1.36h9.56a.68.68,0,0,0,0-1.36H4.23a.68.68,0,0,0,0,1.36Z"/></g></g></svg>