<svg xmlns="http://www.w3.org/2000/svg" viewBox="0 0 20.75 20.75"><defs><style>.cls-1{fill:#818282;}.cls-2{fill:none;stroke:#818282;stroke-miterlimit:10;}</style></defs><title>back_2</title><g id="Layer_2" data-name="Layer 2"><g id="Layer_1-2" data-name="Layer 1"><path class="cls-1" d="M9.19,10.91l5.14,3.15c.51.31.91.08.91-.52V7.16c0-.59-.4-.82-.91-.52L9.2,9.79A.61.61,0,0,0,9.19,10.91ZM5.5,13.58a1.08,1.08,0,0,0,1.08,1.08h.48a1.08,1.08,0,0,0,1.08-1.08V7.17A1.08,1.08,0,0,0,7.07,6.1H6.58A1.08,1.08,0,0,0,5.5,7.17Z"/><rect class="cls-2" x="0.5" y="0.5" width="19.75" height="19.75" rx="1" ry="1" transform="translate(20.75 20.75) rotate(-180)"/></g></g></svg>