<svg xmlns="http://www.w3.org/2000/svg" viewBox="0 0 16.15 16.15"><defs><style>.cls-1{fill:#404041;}</style></defs><title>cap_nhat</title><g id="Layer_2" data-name="Layer 2"><g id="Layer_1-2" data-name="Layer 1"><path class="cls-1" d="M16,3.39,12.77.14a.47.47,0,0,0-.66,0L1.65,10.59a1.89,1.89,0,0,0-.41.71L0,15.78a.32.32,0,0,0,0,.28.25.25,0,0,0,.21.09l.11,0,4.48-1.22a1.88,1.88,0,0,0,.71-.41L16,4a.47.47,0,0,0,0-.66ZM3.8,13.74,3.58,14a.78.78,0,0,1-.29.17l-1.57.43c-.09,0-.15,0-.12-.12L2,12.86a.78.78,0,0,1,.17-.29l.22-.22a.18.18,0,0,1,.25,0L3.8,13.5a.18.18,0,0,1,0,.25ZM12.9,4.49,6.36,11A.87.87,0,0,1,5.12,9.79l6.54-6.54A.87.87,0,0,1,12.9,4.49Zm0,0"/></g></g></svg>