<svg xmlns="http://www.w3.org/2000/svg" viewBox="0 0 16.51 16"><defs><style>.cls-1{fill:#9f224e;}</style></defs><title>cap_nhat_trang_thai</title><g id="Layer_2" data-name="Layer 2"><g id="Layer_1-2" data-name="Layer 1"><path class="cls-1" d="M15.67,9.66a.79.79,0,0,1,.2.81A8,8,0,0,1,1.53,12.33a.26.26,0,0,0-.29-.11l-.9.26A.26.26,0,0,1,0,12.15l.78-3.1.15-.61a.26.26,0,0,1,.44-.13l.76.74,2,1.92a.26.26,0,0,1-.11.44l-1,.28A6.41,6.41,0,0,0,14.36,10a.79.79,0,0,1,1.3-.34Zm-.58-5.83A8,8,0,0,0,.65,5.52a.79.79,0,0,0,.2.81h0A.79.79,0,0,0,2.16,6,6.41,6.41,0,0,1,13.49,4.29l-1,.28a.26.26,0,0,0-.11.44l2,1.93.76.74a.26.26,0,0,0,.44-.13l.15-.61.78-3.1a.26.26,0,0,0-.33-.32ZM11.92,8A3.66,3.66,0,1,1,8.26,4.34,3.66,3.66,0,0,1,11.92,8Z"/></g></g></svg>