<svg xmlns="http://www.w3.org/2000/svg" viewBox="0 0 19.54 19.54"><defs><style>.cls-1{fill:#9f224e;}</style></defs><title>dong</title><g id="Layer_2" data-name="Layer 2"><g id="Layer_1-2" data-name="Layer 1"><path class="cls-1" d="M9.77,0a9.77,9.77,0,1,0,9.77,9.77A9.77,9.77,0,0,0,9.77,0Zm5.64,12.93a.78.78,0,0,1,0,1.11L14,15.41a.78.78,0,0,1-1.11,0L9.77,12.26,6.62,15.41a.78.78,0,0,1-1.11,0L4.13,14a.78.78,0,0,1,0-1.11L7.29,9.77,4.13,6.62a.78.78,0,0,1,0-1.11L5.51,4.13a.78.78,0,0,1,1.11,0L9.77,7.29l3.16-3.16a.78.78,0,0,1,1.11,0l1.38,1.38a.78.78,0,0,1,0,1.11L12.26,9.77Z"/></g></g></svg>