<svg xmlns="http://www.w3.org/2000/svg" viewBox="0 0 15.53 16"><defs><style>.cls-1{fill:#9f224e;}</style></defs><title>dua_y_kien_xu_ly_van_ban</title><g id="Layer_2" data-name="Layer 2"><g id="Layer_1-2" data-name="Layer 1"><path class="cls-1" d="M8.6,7.78H7.37A1.25,1.25,0,0,1,6,6.47Q6,3.89,6,1.3A1.25,1.25,0,0,1,7.38,0h6.8a1.28,1.28,0,0,1,1.35,1.35q0,2.53,0,5.06a1.28,1.28,0,0,1-1.38,1.37H10.93a.57.57,0,0,0-.36.15c-.49.47-1,1-1.45,1.43a.42.42,0,0,1-.35.12.43.43,0,0,1-.17-.33C8.59,8.7,8.6,8.26,8.6,7.78Zm2.58-4.5h.05c0-.29,0-.58,0-.88,0-.76.06-.63-.62-.64-.31,0-.33,0-.32.33,0,.71,0,1.43.05,2.14s-.11.57.64.58c.14,0,.19-.06.19-.2C11.18,4.17,11.19,3.73,11.19,3.28ZM10.77,6c.45,0,.48,0,.49-.35s0-.42-.42-.42h-.23c-.21,0-.32.08-.31.3a1.69,1.69,0,0,1,0,.21c0,.19.08.27.26.26Z"/><path class="cls-1" d="M5,0a3,3,0,0,0-.32,1.71h-3v12l.78-.38,5.19-2.57.38-.17a.85.85,0,0,1,1.15.71,1.28,1.28,0,0,0,.94,1.21,1.25,1.25,0,0,0,1.57-1.26c0-.63,0-1.26,0-1.9,0-.08,0-.17,0-.26H13.5c0,.17,0,.33,0,.49a21,21,0,0,1,0,2.13,3,3,0,0,1-2.64,2.65L1,16a.84.84,0,0,1-1-.62A1.62,1.62,0,0,1,0,15Q0,8,0,1A.88.88,0,0,1,1,0H5Z"/></g></g></svg>