<svg xmlns="http://www.w3.org/2000/svg" viewBox="0 0 16 16"><defs><style>.cls-1{fill:#9f224e;}</style></defs><title>in</title><g id="Layer_2" data-name="Layer 2"><g id="Layer_1-2" data-name="Layer 1"><path class="cls-1" d="M16,6.53v4.16l0,0a1.84,1.84,0,0,1-1.92,1.58h-.52c0,.07,0,.13,0,.19,0,.54,0,1.07,0,1.61A1.86,1.86,0,0,1,11.6,16H4.4a2.69,2.69,0,0,1-.76-.12,1.78,1.78,0,0,1-1.16-1.49c0-.62,0-1.25,0-1.87,0-.06,0-.12,0-.19H1.87A1.85,1.85,0,0,1,0,10.43C0,9.22,0,8,0,6.81a2.09,2.09,0,0,1,.1-.64A1.83,1.83,0,0,1,1.9,4.93h.55c0-.09,0-.15,0-.21,0-.92,0-1.84,0-2.76a2.25,2.25,0,0,1,0-.48A1.83,1.83,0,0,1,4.29,0h7.39a1.78,1.78,0,0,1,1.43.68,1.87,1.87,0,0,1,.42,1.23q0,1.41,0,2.83v.18h.58a1.77,1.77,0,0,1,1.56.81A4.47,4.47,0,0,1,16,6.53ZM3.69,9.25c0,.05,0,.1,0,.14q0,2.33,0,4.67a.63.63,0,0,0,.7.71h7.2a1,1,0,0,0,.45-.13.64.64,0,0,0,.26-.62q0-2.3,0-4.61c0-.05,0-.11,0-.17Zm8.59-4.34c0-.06,0-.11,0-.15q0-1.4,0-2.8a.64.64,0,0,0-.73-.73H4.41A.64.64,0,0,0,3.68,2q0,1.4,0,2.8v.15Zm.94,1.25a.92.92,0,0,0,0,1.84.92.92,0,1,0,0-1.84Z" transform="translate(0 0)"/><path class="cls-1" d="M4.93,11.68V10.47h6.13v1.21Z" transform="translate(0 0)"/><path class="cls-1" d="M4.93,13.53V12.32H9.22v1.21Z" transform="translate(0 0)"/></g></g></svg>