<svg xmlns="http://www.w3.org/2000/svg" viewBox="0 0 15 15"><defs><style>.cls-1{fill:#9f224e;}</style></defs><title>luu_va_gui</title><g id="Layer_2" data-name="Layer 2"><g id="Layer_1-2" data-name="Layer 1"><path class="cls-1" d="M14.45,2.26,12.74.55A1.88,1.88,0,0,0,11.41,0h-1.1V3.28a.47.47,0,0,1-.47.47H2.34a.47.47,0,0,1-.47-.47V0H.94A.94.94,0,0,0,0,.94V14.06A.94.94,0,0,0,.94,15H14.06a.94.94,0,0,0,.94-.94V3.59a1.87,1.87,0,0,0-.55-1.33ZM13.12,13.12H1.87V7.5H13.12Zm0,0"/><rect class="cls-1" x="6.56" width="1.87" height="2.81"/></g></g></svg>