<svg xmlns="http://www.w3.org/2000/svg" viewBox="0 0 20.75 20.75"><defs><style>.cls-1{fill:#818282;}.cls-2{fill:none;stroke:#818282;stroke-miterlimit:10;}</style></defs><title>next_2</title><g id="Layer_2" data-name="Layer 2"><g id="Layer_1-2" data-name="Layer 1"><path class="cls-1" d="M11.55,9.79,6.41,6.64c-.51-.31-.91-.08-.91.52v6.38c0,.59.4.82.91.52l5.14-3.15A.61.61,0,0,0,11.55,9.79Zm3.69-2.61A1.08,1.08,0,0,0,14.17,6.1h-.48a1.08,1.08,0,0,0-1.08,1.08v6.4a1.08,1.08,0,0,0,1.08,1.08h.48a1.08,1.08,0,0,0,1.08-1.08Z"/><rect class="cls-2" x="0.5" y="0.5" width="19.75" height="19.75" rx="1" ry="1"/></g></g></svg>