<svg xmlns="http://www.w3.org/2000/svg" viewBox="0 0 19.59 18.56"><defs><style>.cls-1{fill:#fff;}</style></defs><title>quan_trị_he_thong</title><g id="Layer_2" data-name="Layer 2"><g id="Layer_1-2" data-name="Layer 1"><path class="cls-1" d="M4.73,8a2.84,2.84,0,1,1,5.5,1h3.66a6.42,6.42,0,0,0-.06-2.32l1.14-1A.53.53,0,0,0,15.08,5L13.92,3a.53.53,0,0,0-.63-.24l-1.45.48A6.4,6.4,0,0,0,9.57,1.92L9.26.42A.53.53,0,0,0,8.74,0H6.41a.53.53,0,0,0-.52.42L5.59,1.92A6.38,6.38,0,0,0,3.31,3.23L1.86,2.75A.53.53,0,0,0,1.24,3L.07,5a.53.53,0,0,0,.11.66l1.14,1a6.42,6.42,0,0,0,0,2.63l-1.14,1A.53.53,0,0,0,.07,11l1.17,2a.53.53,0,0,0,.62.24l1.45-.48a6.4,6.4,0,0,0,2.27,1.31l.31,1.49a.53.53,0,0,0,.52.42h1.8V10.76A2.84,2.84,0,0,1,4.73,8Zm0,0"/><path class="cls-1" d="M19.11,9.75H9.44a.48.48,0,0,0-.48.48v7.86a.48.48,0,0,0,.48.48h9.67a.48.48,0,0,0,.48-.48V10.23a.48.48,0,0,0-.48-.48Zm-.9,7.49H10.34V12.51h7.88Zm0,0"/><path class="cls-1" d="M13.36,16.25a.57.57,0,0,0,.81,0l2.07-2.07a.57.57,0,1,0-.81-.81L13.77,15l-.65-.65a.57.57,0,0,0-.81.81Zm0,0"/></g></g></svg>