<svg xmlns="http://www.w3.org/2000/svg" viewBox="0 0 16 16"><defs><style>.cls-1{fill:#9f224e;}</style></defs><title>them</title><g id="Layer_2" data-name="Layer 2"><g id="Layer_1-2" data-name="Layer 1"><path class="cls-1" d="M8,16A8,8,0,1,0,0,8a8,8,0,0,0,8,8ZM3.25,7.41a.83.83,0,0,1,.83-.83h2.5V4.08a.83.83,0,0,1,.83-.83H8.59a.83.83,0,0,1,.83.83v2.5h2.5a.83.83,0,0,1,.73.43.84.84,0,0,1,.1.4V8.59a.83.83,0,0,1-.83.83H9.42v2.5a.83.83,0,0,1-.83.83H7.41a.83.83,0,0,1-.83-.83V9.42H4.08a.83.83,0,0,1-.83-.83Zm0,0"/></g></g></svg>