<svg xmlns="http://www.w3.org/2000/svg" viewBox="0 0 16.66 16"><defs><style>.cls-1{fill:#9f224e;}</style></defs><title>thu_hoi_luan_chuyen</title><g id="Layer_2" data-name="Layer 2"><g id="Layer_1-2" data-name="Layer 1"><path class="cls-1" d="M0,12.58a1.37,1.37,0,0,1,.19-.27.66.66,0,0,1,1,.16.91.91,0,0,1,.09.38c0,.55,0,1.1,0,1.64,0,.06,0,.12,0,.18H15.36v-.17c0-.55,0-1.11,0-1.66a.68.68,0,0,1,.24-.57.67.67,0,0,1,.69-.09.54.54,0,0,1,.36.52c0,.91,0,1.81,0,2.72a.6.6,0,0,1-.55.56H.75A.72.72,0,0,1,0,15.54Z"/><path class="cls-1" d="M7.29,3.83c0-.36,0-.7,0-1s0-.85.06-1.27.05-.73.1-1.09A.37.37,0,0,1,7.61.18a1.52,1.52,0,0,1,1.33,0c.25.11.24.34.26.56.05.51.09,1,.13,1.53,0,.26,0,.52,0,.77s0,.54.06.83h1.05a.4.4,0,0,1,.37.18.35.35,0,0,1-.05.41c-.31.39-.6.79-.93,1.16s-.79.84-1.19,1.26A.45.45,0,0,1,8.28,7,.31.31,0,0,1,8.13,7c-.14-.12-.28-.24-.4-.37L7.19,6A13.36,13.36,0,0,1,5.86,4.41a.38.38,0,0,1,0-.38.36.36,0,0,1,.35-.2Z"/><path class="cls-1" d="M16.57,7.64c-.22,0-.44-.07-.66-.07A2.14,2.14,0,0,0,14.59,8a5.1,5.1,0,0,0-1.54,2s0,0,0,0l.91.48c.14.07.27.16.26.35s-.12.26-.26.33a16,16,0,0,1-2.47,1l-.72.24a.31.31,0,0,1-.42-.23c-.17-.63-.33-1.27-.48-1.91-.1-.45-.18-.91-.26-1.36a.42.42,0,0,1,.13-.44.39.39,0,0,1,.42,0l.91.46A3.86,3.86,0,0,1,16.57,7.64Z"/><path class="cls-1" d="M.05,7.67A3.87,3.87,0,0,1,5.59,9.1l.92-.46a.37.37,0,0,1,.42,0,.42.42,0,0,1,.12.44c-.12.66-.24,1.32-.39,2-.1.43-.23.86-.35,1.29a.31.31,0,0,1-.41.22c-.67-.24-1.35-.47-2-.74-.4-.16-.79-.36-1.18-.55a.37.37,0,0,1-.26-.35c0-.18.12-.26.26-.34l.95-.5C3.44,9.74,3.24,9.38,3,9A3.63,3.63,0,0,0,2,8,2.21,2.21,0,0,0,.54,7.57,4.29,4.29,0,0,0,.05,7.67Z"/></g></g></svg>