<svg xmlns="http://www.w3.org/2000/svg" viewBox="0 0 19.54 19.54"><defs><style>.cls-1{fill:#9f224e;}</style></defs><title>tim_kiem</title><g id="Layer_2" data-name="Layer 2"><g id="Layer_1-2" data-name="Layer 1"><path class="cls-1" d="M2.32,13.53a7.78,7.78,0,0,0,9.57,1.19.34.34,0,0,1,.41.05l4,4A1.85,1.85,0,0,0,19,19.1L19.1,19a1.85,1.85,0,0,0-.28-2.65l-4-4a.33.33,0,0,1,0-.4,7.78,7.78,0,0,0-1.19-9.57A7.93,7.93,0,0,0,2.32,13.53Zm9.75-1.46a5.86,5.86,0,1,1,0-8.29,5.87,5.87,0,0,1,0,8.29Zm0,0"/></g></g></svg>