<svg xmlns="http://www.w3.org/2000/svg" viewBox="0 0 16 16"><defs><style>.cls-1{fill:#9f224e;}</style></defs><title>tim_kiem_nhanh</title><g id="Layer_2" data-name="Layer 2"><g id="Layer_1-2" data-name="Layer 1"><path class="cls-1" d="M14.1,11.08A6.49,6.49,0,1,0,4.92,1.9a6.37,6.37,0,0,0-1,7.84.27.27,0,0,1,0,.33L.59,13.37a1.51,1.51,0,0,0-.23,2.17l.1.1a1.51,1.51,0,0,0,2.17-.23L5.93,12.1a.28.28,0,0,1,.33,0,6.37,6.37,0,0,0,7.84-1Zm-8-1.2a4.8,4.8,0,1,1,6.78,0,4.8,4.8,0,0,1-6.78,0Zm0,0"/></g></g></svg>