<svg xmlns="http://www.w3.org/2000/svg" viewBox="0 0 16 21.1"><defs><style>.cls-1{fill:#fff;}</style></defs><title>van_ban_dieu_hanh</title><g id="Layer_2" data-name="Layer 2"><g id="Layer_1-2" data-name="Layer 1"><path class="cls-1" d="M8.49,2.63h5.87A1.46,1.46,0,0,1,16,4.29q0,6.38,0,12.77a1.45,1.45,0,0,1-1.65,1.65H8.49c0,.56,0,1.08,0,1.59a1.79,1.79,0,0,1,0,.36c-.08.39-.31.52-.69.39L2.33,19.21.85,18.72A1.08,1.08,0,0,1,0,17.54C0,16.29,0,15,0,13.8Q0,8.74,0,3.68C0,2.86.19,2.6,1,2.33L7.7.07c.53-.18.78,0,.79.55S8.49,1.92,8.49,2.63Zm0,15.27.15,0H14.5c.49,0,.73-.28.73-.8q0-6.46,0-12.91c0-.56-.23-.79-.79-.79H8.51V6.85h2c0,.3,0,.57,0,.83s-.08.31-.31.31c-.83,0,.74,0-.09,0H8.51V9.27h4.43V10.4H8.51v1.28h4.43v1.12H8.51v1.3h4.43v1.12H8.51Z"/><path class="cls-1" d="M14.44,5.84l-.3-.26a.11.11,0,0,1,0-.12l.13-.37a.11.11,0,0,0-.08-.14l-.39-.07a.11.11,0,0,1-.09-.09l-.07-.38a.11.11,0,0,0-.14-.08l-.37.13a.11.11,0,0,1-.12,0l-.26-.3a.11.11,0,0,0-.17,0l-.26.3a.11.11,0,0,1-.12,0l-.37-.13a.11.11,0,0,0-.14.08l-.07.38a.11.11,0,0,1-.09.09l-.38.07a.11.11,0,0,0-.08.14l.13.37a.11.11,0,0,1,0,.12l-.3.26a.11.11,0,0,0,0,.17l.3.26a.11.11,0,0,1,0,.12L11,6.75a.11.11,0,0,0,.08.14l.38.07a.11.11,0,0,1,.09.09l.07.38a.11.11,0,0,0,.14.08l.37-.13a.11.11,0,0,1,.12,0l.26.3a.11.11,0,0,0,.17,0l.26-.3a.11.11,0,0,1,.12,0l.37.13a.11.11,0,0,0,.14-.08l.07-.38A.11.11,0,0,1,13.78,7l.38-.07a.11.11,0,0,0,.08-.14l-.13-.37a.11.11,0,0,1,0-.12l.3-.26a.11.11,0,0,0,0-.17Zm-1,0"/></g></g></svg>