<svg xmlns="http://www.w3.org/2000/svg" viewBox="0 0 14.04 14"><defs><style>.cls-1{fill:#26a9e0;}</style></defs><title>xem</title><g id="Layer_2" data-name="Layer 2"><g id="Layer_1-2" data-name="Layer 1"><path class="cls-1" d="M11.61,0a1.92,1.92,0,0,1,.69.3,1.58,1.58,0,0,1,.63,1,3.56,3.56,0,0,1,0,.46q0,3.24,0,6.49v.17l-1.09-.58V2.17H1.09v.17q0,4.46,0,8.91a.57.57,0,0,0,.61.6H5.38a.19.19,0,0,1,.2.12c.19.32.39.63.58.94v0H6c-1.46,0-2.92,0-4.38,0A1.65,1.65,0,0,1,.06,11.79L0,11.61V1.31l0,0a1.49,1.49,0,0,1,.69-1A4.89,4.89,0,0,1,1.31,0Z"/><path class="cls-1" d="M14,11.34c-.06.13-.11.28-.19.41a4.39,4.39,0,0,1-.9,1.06,4.5,4.5,0,0,1-2,1.1,3.13,3.13,0,0,1-1.34,0,4.3,4.3,0,0,1-2-1,4.73,4.73,0,0,1-.95-1,1.58,1.58,0,0,1-.24-.57.69.69,0,0,1,.14-.42,5.26,5.26,0,0,1,2-1.83,3.56,3.56,0,0,1,1.25-.42,3.18,3.18,0,0,1,1.59.21,5,5,0,0,1,1.43.88,4.62,4.62,0,0,1,1.09,1.31A2,2,0,0,1,14,11.34Zm-3.8-1.62a1.6,1.6,0,0,0-1.58,1.81,1.53,1.53,0,0,0,.57,1,1.57,1.57,0,0,0,1.28.35,1.62,1.62,0,0,0,1.35-1.56H10.77a.56.56,0,0,1-.54-.53C10.25,10.45,10.24,10.09,10.24,9.73Z"/><path class="cls-1" d="M4.85,5.38V4.3h5.4V5.38Z"/><path class="cls-1" d="M4.85,7.55V6.47h5.4V7.55Z"/><path class="cls-1" d="M7.28,8.63l-.87.83a1.69,1.69,0,0,0-.12.14.27.27,0,0,1-.23.12H4.86V8.63Z"/><path class="cls-1" d="M2.69,5.39V4.31H3.77V5.39Z"/><path class="cls-1" d="M2.69,7.54V6.47H3.77V7.54Z"/><path class="cls-1" d="M3.77,9.72H2.69V8.63H3.77Z"/></g></g></svg>