<svg xmlns="http://www.w3.org/2000/svg" viewBox="0 0 14 14"><defs><style>.cls-1{fill:#26a9e0;}</style></defs><title>xem_lien_thong</title><g id="Layer_2" data-name="Layer 2"><g id="Layer_1-2" data-name="Layer 1"><path class="cls-1" d="M7,0a7,7,0,1,0,7,7A7,7,0,0,0,7,0Zm4.83,4.2h-2a10.91,10.91,0,0,0-1-2.52,5.62,5.62,0,0,1,3,2.52ZM7,1.4A9.37,9.37,0,0,1,8.33,4.2H5.67A10.24,10.24,0,0,1,7,1.4Zm-5.39,7A4.53,4.53,0,0,1,1.4,7a4.53,4.53,0,0,1,.21-1.4H4A9.55,9.55,0,0,0,3.92,7c0,.49.07.91.07,1.4Zm.56,1.4h2a10.91,10.91,0,0,0,1,2.52,5.62,5.62,0,0,1-3-2.52Zm2-5.6h-2a5.89,5.89,0,0,1,3-2.52,10.91,10.91,0,0,0-1,2.52ZM7,12.6A9.37,9.37,0,0,1,5.67,9.8H8.33A10.24,10.24,0,0,1,7,12.6ZM8.61,8.4H5.39A9.32,9.32,0,0,1,5.25,7a9.32,9.32,0,0,1,.14-1.4H8.68A9.8,9.8,0,0,1,8.82,7a9.51,9.51,0,0,1-.21,1.4Zm.21,3.92a9.83,9.83,0,0,0,1-2.52h2a5.62,5.62,0,0,1-3,2.52ZM10.08,8.4A9.2,9.2,0,0,0,10.15,7c0-.49-.07-.91-.07-1.4h2.38a4.74,4.74,0,0,1,0,2.8Zm0,0"/></g></g></svg>