<svg xmlns="http://www.w3.org/2000/svg" viewBox="0 0 10.12 14"><defs><style>.cls-1{fill:#faaf40;}</style></defs><title>xem_giay</title><g id="Layer_2" data-name="Layer 2"><g id="Layer_1-2" data-name="Layer 1"><path class="cls-1" d="M7.25.51V2.26a.61.61,0,0,0,.61.61H9.61Zm0,0"/><path class="cls-1" d="M6.24,3.27V.61A.61.61,0,0,0,5.63,0h-5A.61.61,0,0,0,0,.61V13.39A.61.61,0,0,0,.61,14H9.51a.61.61,0,0,0,.61-.61V4.49a.61.61,0,0,0-.61-.61H6.85A.61.61,0,0,1,6.24,3.27Zm2.19,8.45H1.69v-1H8.43Zm0-2.36H1.69v-1H8.43ZM8.43,7H1.69V6H8.43Zm0,0"/></g></g></svg>