<svg xmlns="http://www.w3.org/2000/svg" viewBox="0 0 13.95 17.52"><defs><style>.cls-1{fill:#faaf40;}.cls-2{fill:#26a9e0;}</style></defs><title>xem_giay_va_lien_thong</title><g id="Layer_2" data-name="Layer 2"><g id="Layer_1-2" data-name="Layer 1"><path class="cls-1" d="M7.86,2.87H9.61L7.25.51V2.26A.61.61,0,0,0,7.86,2.87Z"/><path class="cls-1" d="M9.87,8.41l.25,0V4.49a.61.61,0,0,0-.61-.61H6.85a.61.61,0,0,1-.61-.61V.61A.61.61,0,0,0,5.63,0h-5A.61.61,0,0,0,0,.61V13.39A.61.61,0,0,0,.61,14H4.79c0-.16,0-.31,0-.47A5.12,5.12,0,0,1,9.87,8.41ZM1.69,6H8.43V7H1.69Zm0,2.36H6.07v1H1.69Zm1.78,3.37H1.69v-1H3.47Z"/><path class="cls-2" d="M9.86,9.34a4.09,4.09,0,1,0,4.09,4.09A4.1,4.1,0,0,0,9.86,9.34Zm2.82,2.45H11.49a6.37,6.37,0,0,0-.57-1.47,3.28,3.28,0,0,1,1.76,1.47ZM9.86,10.16a5.48,5.48,0,0,1,.78,1.64H9.08a6,6,0,0,1,.78-1.64ZM6.71,14.25a2.82,2.82,0,0,1,0-1.64H8.1a5.58,5.58,0,0,0,0,.82c0,.29,0,.53,0,.82Zm.33.82H8.22a6.37,6.37,0,0,0,.57,1.47A3.28,3.28,0,0,1,7,15.07ZM8.22,11.8H7a3.44,3.44,0,0,1,1.76-1.47,6.37,6.37,0,0,0-.57,1.47ZM9.86,16.7a5.48,5.48,0,0,1-.78-1.64h1.55a6,6,0,0,1-.78,1.64Zm.94-2.45H8.91a5.45,5.45,0,0,1-.08-.82,5.45,5.45,0,0,1,.08-.82h1.92a5.73,5.73,0,0,1,.08.82,5.56,5.56,0,0,1-.12.82Zm.12,2.29a5.74,5.74,0,0,0,.57-1.47h1.19a3.28,3.28,0,0,1-1.76,1.47Zm.74-2.29a5.38,5.38,0,0,0,0-.82c0-.29,0-.53,0-.82H13a2.77,2.77,0,0,1,0,1.64Zm0,0"/></g></g></svg>