<svg xmlns="http://www.w3.org/2000/svg" viewBox="0 0 17.18 10.01"><defs><style>.cls-1{fill:#404041;}</style></defs><title>xem_chi_tiet</title><g id="Layer_2" data-name="Layer 2"><g id="Layer_1-2" data-name="Layer 1"><path class="cls-1" d="M8.39,10A8.33,8.33,0,0,1,4.77,9,15,15,0,0,1,.12,5.27a.35.35,0,0,1,0-.53,14.61,14.61,0,0,1,5.16-4A8,8,0,0,1,8.92,0a8.46,8.46,0,0,1,3.34.9,14.76,14.76,0,0,1,4.33,3.3l.42.48c.21.25.21.38,0,.64a16.05,16.05,0,0,1-2.62,2.47A11.79,11.79,0,0,1,11.2,9.55,8.26,8.26,0,0,1,8.39,10Zm.2-8.12A3.12,3.12,0,1,0,11.71,5,3.12,3.12,0,0,0,8.59,1.89Z"/><path class="cls-1" d="M8.59,7a1.95,1.95,0,1,1,1.95-1.94A1.94,1.94,0,0,1,8.59,7Z"/></g></g></svg>