<svg xmlns="http://www.w3.org/2000/svg" viewBox="0 0 20.81 19.54"><defs><style>.cls-1{fill:#9f224e;}</style></defs><title>xuat_excel</title><g id="Layer_2" data-name="Layer 2"><g id="Layer_1-2" data-name="Layer 1"><polygon class="cls-1" points="10.28 15.96 4.42 6.76 7.1 6.76 12.93 15.96 10.28 15.96"/><polygon class="cls-1" points="7.09 15.96 4.42 15.96 10.24 6.76 12.93 6.76 7.09 15.96"/><path class="cls-1" d="M15.74,8.89v8.33a.73.73,0,0,1-.73.73H2.33a.73.73,0,0,1-.73-.73V3.47a.73.73,0,0,1,.73-.73h9.49V1.14H1.61A1.61,1.61,0,0,0,0,2.74v15.2a1.61,1.61,0,0,0,1.61,1.61H15.74a1.61,1.61,0,0,0,1.61-1.61V8.89Z"/><path class="cls-1" d="M17.21,1.08V.27a.27.27,0,0,1,.45-.19L20.71,3a.33.33,0,0,1,0,.48l-3,2.77a.27.27,0,0,1-.44-.2V5.12H15.94c-2.08,0-.37,0-2.44,0v-4h3.62Z"/></g></g></svg>