<svg xmlns="http://www.w3.org/2000/svg" viewBox="0 0 21 19.54"><defs><style>.cls-1{fill:#9f224e;}</style></defs><title>xuat_word</title><g id="Layer_2" data-name="Layer 2"><g id="Layer_1-2" data-name="Layer 1"><path class="cls-1" d="M15.74,8.89v8.33a.73.73,0,0,1-.73.73H2.33a.73.73,0,0,1-.73-.73V3.47a.73.73,0,0,1,.73-.73h9.49V1.14H1.61A1.61,1.61,0,0,0,0,2.74v15.2a1.61,1.61,0,0,0,1.61,1.61H15.74a1.61,1.61,0,0,0,1.61-1.61V8.89Z"/><path class="cls-1" d="M5.22,15.47,3.15,6.76H5.26l.66,3.59c.19,1,.37,2.16.52,3h0c.14-.94.35-2,.57-3.06l.74-3.56H9.86l.7,3.67c.19,1,.34,2,.46,2.92h0c.13-1,.32-2,.5-3l.71-3.56h2L12,15.47H9.88l-.74-3.75C9,10.84,8.84,10,8.73,9h0c-.15,1-.3,1.81-.5,2.69l-.83,3.75Z"/><path class="cls-1" d="M17.4,1.08V.27a.27.27,0,0,1,.45-.19L20.9,3a.33.33,0,0,1,0,.48l-3,2.77a.27.27,0,0,1-.44-.2V5.12H16.13c-2.08,0-.37,0-2.44,0v-4h3.62Z"/></g></g></svg>