<svg xmlns="http://www.w3.org/2000/svg" viewBox="0 0 15 15"><defs><style>.cls-1{fill:#fff;}</style></defs><title>Admin</title><g id="Layer_2" data-name="Layer 2"><g id="Layer_1-2" data-name="Layer 1"><path class="cls-1" d="M15,7.5A7.5,7.5,0,1,0,2.43,13h0l.24.2,0,0,.4.31.13.1L3.7,14l.1.06.51.27,0,0a7.55,7.55,0,0,0,1.81.57h.05l.6.08h.07l.61,0,.61,0h.08l.59-.08h.05a7.39,7.39,0,0,0,1.79-.56l.06,0,.49-.26.12-.07.43-.27.15-.11.35-.27.08-.06.25-.21h0A7.48,7.48,0,0,0,15,7.5ZM.55,7.5a7,7,0,1,1,11.57,5.2l-.24-.15L9.56,11.4a.61.61,0,0,1-.34-.54V10l.17-.22a5.53,5.53,0,0,0,.71-1.4,1,1,0,0,0,.57-.9v-1a1,1,0,0,0-.24-.65V4.64A2.21,2.21,0,0,0,9.92,3,3.07,3.07,0,0,0,7.5,2.18,3.07,3.07,0,0,0,5.08,3a2.21,2.21,0,0,0-.51,1.6V5.92a1,1,0,0,0-.24.65v1a1,1,0,0,0,.37.77A5.08,5.08,0,0,0,5.54,10v.79a.61.61,0,0,1-.32.53L3.06,12.54l-.2.13A6.94,6.94,0,0,1,.55,7.5Zm0,0"/></g></g></svg>