<svg xmlns="http://www.w3.org/2000/svg" viewBox="0 0 19.52 20.11"><defs><style>.cls-1{fill:#fff;}</style></defs><title>huong dan</title><g id="Layer_2" data-name="Layer 2"><g id="Layer_1-2" data-name="Layer 1"><path class="cls-1" d="M10.82,9.78H9.31A1.59,1.59,0,0,1,7.58,8.06q0-3.17,0-6.33A1.6,1.6,0,0,1,9.33,0h8.46a1.62,1.62,0,0,1,1.74,1.74q0,3.14,0,6.28a1.62,1.62,0,0,1-1.75,1.76h-4a.61.61,0,0,0-.48.2c-.59.6-1.18,1.2-1.79,1.78a.62.62,0,0,1-.44.17c-.22,0-.23-.26-.23-.45C10.82,10.93,10.82,10.37,10.82,9.78Z"/><path class="cls-1" d="M2.19,2.16V17.28l1-.47,6.5-3.22a5.73,5.73,0,0,1,.53-.24,1.06,1.06,0,0,1,1.43.88,1.6,1.6,0,0,0,1,1.48,1.57,1.57,0,0,0,2.12-1.52c0-.79,0-1.59,0-2.38,0-.1,0-.21,0-.33H17c0,.09,0,.18,0,.28q0,1.22,0,2.44a3.78,3.78,0,0,1-3.37,3.9c-4.12.66-8.23,1.34-12.35,2a1.06,1.06,0,0,1-1.2-.77A2,2,0,0,1,0,18.85Q0,10.05,0,1.26A1.11,1.11,0,0,1,1.27,0h5A10.26,10.26,0,0,0,6,1.06a10,10,0,0,0-.08,1.1Z"/></g></g></svg>