<svg xmlns="http://www.w3.org/2000/svg" viewBox="0 0 15 15"><defs><style>.cls-1{fill:#fff;}</style></defs><title>Thong bao</title><g id="Layer_2" data-name="Layer 2"><g id="Layer_1-2" data-name="Layer 1"><path class="cls-1" d="M15,7.52q0,2,0,4.1A3.34,3.34,0,0,1,11.62,15H3.37A3.32,3.32,0,0,1,0,12.21a3.38,3.38,0,0,1,0-.58Q0,7.5,0,3.37A3.32,3.32,0,0,1,3.36,0h8.28A3.33,3.33,0,0,1,15,3.37C15,4.75,15,6.13,15,7.52Zm-13.33,0q0,2.06,0,4.12A1.66,1.66,0,0,0,3.4,13.33h8.2a1.67,1.67,0,0,0,1.74-1.74q0-4.09,0-8.18a1.66,1.66,0,0,0-1.74-1.74H3.43A1.67,1.67,0,0,0,1.67,3.43Q1.67,5.46,1.67,7.48Z"/><path class="cls-1" d="M3.34,9.15c.53-.63,1-1.25,1.55-1.86A.56.56,0,0,0,5,7a7.43,7.43,0,0,1,.1-1A2.39,2.39,0,0,1,6.55,4.37c.08,0,.13-.07.13-.18a.83.83,0,1,1,1.64.09v0l.2.09A2.4,2.4,0,0,1,10,6.66a1.26,1.26,0,0,0,.33.9c.46.51.88,1,1.33,1.59Z"/><path class="cls-1" d="M8.33,10.83a.83.83,0,1,1-1.67,0,.83.83,0,0,1,1.67,0Z"/></g></g></svg>